<svg width="180" height="26" viewBox="0 0 180 26" fill="none" xmlns="http://www.w3.org/2000/svg">
<path fill-rule="evenodd" clip-rule="evenodd" d="M89.1541 0L78.4539 26H0L10.7002 0H89.1541Z" fill="#2E4EBC"/>
<path d="M48.2139 20.3984L52.7392 20.3566L58.6603 5.89355H54.2618L48.2139 20.3984Z" fill="white"/>
<path d="M8.03613 20.3984H21.4008C22.1198 20.3984 22.7542 20.1894 23.3463 19.8132C23.9384 19.437 24.3613 18.8936 24.6574 18.2247L25.5032 16.2183C25.5032 16.2183 25.8416 15.4241 26.2222 14.5045C26.5183 13.7939 26.5183 12.7071 25.6301 12.0801C24.8265 11.5366 24.023 11.453 23.4732 11.453C20.2589 11.4112 16.1987 11.453 16.1987 11.453L17.2561 9.0704H28.4638L29.6903 5.89355H16.2833C15.945 5.89355 15.6066 5.93536 15.2683 6.06076C14.9299 6.14436 14.6339 6.31156 14.3378 6.47876C14.0418 6.68777 13.788 6.89677 13.5765 7.14757C13.3651 7.39838 13.1959 7.69098 13.069 8.02539C13.069 8.02539 12.773 8.9032 12.1386 10.4498C11.3773 12.2891 11.5888 13.4177 12.0963 13.9611C12.6884 14.5881 13.4497 14.3791 15.1414 14.3791C18.2288 14.3791 21.7814 14.3791 21.7814 14.3791L20.7241 16.7199H9.5164L8.03613 20.3984Z" fill="white"/>
<path fill-rule="evenodd" clip-rule="evenodd" d="M47.3264 5.85254H51.4288L43.9852 20.441H38.6985L38.4025 14.7979L34.3423 20.441H27.9561L32.3546 5.85254H36.2455L33.4542 15.7175L38.2756 9.7818H41.8282L42.2512 15.2159L47.3264 5.85254Z" fill="white"/>
<path fill-rule="evenodd" clip-rule="evenodd" d="M64.1585 10.2834L60.2676 20.4828H55.7422L61.7901 5.85254H66.8653L68.557 11.5792L74.8164 5.85254H80.9489L74.8587 20.441H70.4179L74.8164 10.3252L69.1914 16.0519H65.5119L64.1585 10.2834Z" fill="white"/>
<path d="M95.5825 9.78136C96.2169 9.78136 96.7667 9.78136 97.2742 9.78136C97.7817 9.78136 98.2469 9.78136 98.7122 9.78136C99.1351 9.78136 99.5157 9.78136 99.8541 9.78136C100.192 9.78136 100.531 9.78136 100.785 9.78136C101.038 9.78136 101.292 9.78136 101.504 9.78136C101.715 9.78136 101.884 9.78136 102.053 9.78136C102.223 9.78136 102.349 9.78136 102.434 9.78136C102.561 9.78136 102.645 9.78136 102.688 9.78136C102.772 9.78136 102.815 9.78136 102.857 9.78136C102.899 9.78136 102.941 9.78136 102.941 9.78136H102.984C103.153 9.40515 103.28 9.07075 103.407 8.77814C103.534 8.48554 103.66 8.23474 103.745 7.98393C103.83 7.77493 103.914 7.56593 103.999 7.39872C104.083 7.23152 104.126 7.10612 104.168 6.98072C104.21 6.85532 104.253 6.77171 104.295 6.68811C104.337 6.60451 104.337 6.56271 104.379 6.52091C104.379 6.47911 104.422 6.43731 104.422 6.43731V6.39551C103.576 6.39551 102.815 6.39551 102.138 6.39551C101.419 6.39551 100.785 6.39551 100.192 6.39551C99.6003 6.39551 99.0505 6.39551 98.5853 6.39551C98.0778 6.39551 97.6548 6.39551 97.2742 6.39551C96.8936 6.39551 96.5129 6.39551 96.2169 6.39551C95.9208 6.39551 95.6248 6.39551 95.371 6.39551C95.1172 6.39551 94.9058 6.39551 94.7366 6.39551C94.5674 6.39551 94.3983 6.39551 94.3137 6.39551C94.1868 6.39551 94.1022 6.39551 94.0176 6.39551C93.933 6.39551 93.8907 6.39551 93.8484 6.39551C93.8062 6.39551 93.7639 6.39551 93.7639 6.39551H93.7216C92.2836 6.39551 91.0994 7.18972 90.2112 8.73634C90.0844 9.02895 89.9575 9.32155 89.8729 9.57236C89.7883 9.82316 89.6614 10.0322 89.6191 10.2412C89.5345 10.4502 89.4922 10.6174 89.4077 10.7428C89.3654 10.8682 89.2808 10.9936 89.2808 11.0772C89.2385 11.1608 89.1962 11.2444 89.1962 11.328C89.1539 11.3698 89.1539 11.4534 89.1539 11.4952C89.1539 11.537 89.1116 11.537 89.1116 11.5788V11.6206C88.731 12.6238 88.7733 13.5016 89.2385 14.254C89.7037 15.0064 90.4227 15.3826 91.4377 15.3826C91.903 15.3826 92.3682 15.3826 92.7488 15.3826C93.1718 15.3826 93.5101 15.3826 93.8484 15.3826C94.1868 15.3826 94.4829 15.3826 94.7366 15.3826C94.9904 15.3826 95.2441 15.3826 95.4133 15.3826C95.6248 15.3826 95.7939 15.3826 95.9208 15.3826C96.0477 15.3826 96.1746 15.3826 96.3015 15.3826C96.386 15.3826 96.4706 15.3826 96.5552 15.3826C96.6398 15.3826 96.6821 15.3826 96.6821 15.3826C96.7244 15.3826 96.7244 15.3826 96.7667 15.3826H96.809C96.9359 15.3826 97.0204 15.4244 97.105 15.5498C97.1473 15.6753 97.1473 15.7589 97.105 15.8843C97.0204 16.0933 96.9782 16.2605 96.8936 16.4277C96.8513 16.5949 96.7667 16.7203 96.7244 16.8039C96.6821 16.8875 96.6398 16.9711 96.5975 17.0547C96.5552 17.1383 96.5552 17.1801 96.5129 17.2219C96.5129 17.2637 96.4706 17.2637 96.4706 17.3055V17.3473C96.3438 17.5563 96.2169 17.6817 96.0054 17.6817C95.2864 17.6817 94.6097 17.6817 93.9753 17.6817C93.3409 17.6817 92.7911 17.6817 92.2836 17.6817C91.7761 17.6817 91.2686 17.6817 90.8456 17.6817C90.4227 17.6817 90.0421 17.6817 89.6614 17.6817C89.3231 17.6817 88.9847 17.6817 88.731 17.6817C88.4772 17.6817 88.2235 17.6817 88.012 17.6817C87.8005 17.6817 87.6313 17.6817 87.4622 17.6817C87.293 17.6817 87.1661 17.6817 87.0815 17.6817C86.9547 17.6817 86.8701 17.6817 86.8278 17.6817C86.7432 17.6817 86.7009 17.6817 86.6586 17.6817C86.6163 17.6817 86.574 17.6817 86.574 17.6817H86.5317C86.4048 18.0579 86.2357 18.3923 86.1088 18.6849C85.9819 18.9775 85.8973 19.2283 85.7704 19.4791C85.6859 19.6881 85.6013 19.8971 85.5167 20.0643C85.4321 20.2315 85.3898 20.3569 85.3475 20.4823C85.3052 20.6077 85.2629 20.6913 85.2206 20.7749C85.1783 20.8585 85.1783 20.9003 85.136 20.9421C85.136 20.9839 85.0938 21.0257 85.0938 21.0257V21.0675C85.9396 21.0675 86.7009 21.0675 87.3776 21.0675C88.0966 21.0675 88.731 21.0675 89.3231 21.0675C89.9152 21.0675 90.465 21.0675 90.9302 21.0675C91.3954 21.0675 91.8607 21.0675 92.2413 21.0675C92.622 21.0675 93.0026 21.0675 93.2986 21.0675C93.5947 21.0675 93.8907 21.0675 94.1445 21.0675C94.3983 21.0675 94.6097 21.0675 94.7789 21.0675C94.9481 21.0675 95.1173 21.0675 95.2018 21.0675C95.3287 21.0675 95.4133 21.0675 95.4979 21.0675C95.5825 21.0675 95.6248 21.0675 95.6671 21.0675C95.7094 21.0675 95.7516 21.0675 95.7516 21.0675H95.7939C96.5552 21.0675 97.2319 20.8585 97.9086 20.3987C98.543 19.9389 99.0082 19.3537 99.3466 18.6431C99.4735 18.3505 99.6003 18.0579 99.6849 17.8071C99.7695 17.5563 99.8964 17.3473 99.9387 17.1383C100.023 16.9293 100.066 16.8039 100.15 16.6367C100.235 16.4695 100.235 16.3859 100.277 16.3023C100.319 16.2187 100.362 16.1351 100.362 16.0515C100.404 16.0097 100.404 15.9261 100.404 15.9261C100.404 15.8843 100.446 15.8843 100.446 15.8425V15.8007C100.827 14.7974 100.785 13.9614 100.319 13.209C99.8541 12.4566 99.1351 12.0804 98.1624 12.0804C97.6971 12.0804 97.2319 12.0804 96.8513 12.0804C96.4283 12.0804 96.09 12.0804 95.7516 12.0804C95.4133 12.0804 95.1173 12.0804 94.8635 12.0804C94.6097 12.0804 94.3983 12.0804 94.1868 12.0804C93.9753 12.0804 93.8062 12.0804 93.6793 12.0804C93.5524 12.0804 93.4255 12.0804 93.2986 12.0804C93.1718 12.0804 93.1295 12.0804 93.0449 12.0804C92.9603 12.0804 92.918 12.0804 92.918 12.0804C92.8757 12.0804 92.8757 12.0804 92.8334 12.0804H92.7911C92.6642 12.0804 92.5797 12.0386 92.4951 11.9132C92.4105 11.8296 92.4105 11.7042 92.4528 11.537C92.5374 11.328 92.622 11.1608 92.6642 10.9936C92.7065 10.8264 92.7911 10.701 92.8334 10.6174C92.8757 10.5338 92.918 10.4502 92.918 10.3666C92.9603 10.283 92.9603 10.2412 92.9603 10.1994C92.9603 10.1576 93.0026 10.1576 93.0026 10.1158V10.074C93.0449 9.99036 93.0872 9.90676 93.1718 9.86496C93.2563 9.82316 93.3409 9.78136 93.4678 9.78136C94.3137 9.78136 94.9481 9.78136 95.5825 9.78136Z" fill="white"/>
<path d="M114.869 6.4375L110.174 10.9102L108.609 6.4793H104.507L107.256 14.3378L104.549 21.0259H108.271L110.809 14.6304L119.267 6.4793L114.869 6.4375Z" fill="white"/>
<path d="M124.892 9.78136C125.526 9.78136 126.076 9.78136 126.584 9.78136C127.091 9.78136 127.557 9.78136 128.022 9.78136C128.445 9.78136 128.825 9.78136 129.164 9.78136C129.502 9.78136 129.84 9.78136 130.094 9.78136C130.348 9.78136 130.602 9.78136 130.813 9.78136C131.025 9.78136 131.194 9.78136 131.363 9.78136C131.532 9.78136 131.659 9.78136 131.744 9.78136C131.87 9.78136 131.955 9.78136 131.997 9.78136C132.082 9.78136 132.124 9.78136 132.166 9.78136C132.209 9.78136 132.251 9.78136 132.251 9.78136H132.293C132.463 9.40515 132.589 9.07075 132.716 8.77814C132.843 8.48554 132.97 8.23474 133.055 7.98393C133.139 7.77493 133.224 7.56593 133.308 7.39872C133.393 7.23152 133.435 7.10612 133.478 6.98072C133.52 6.85532 133.562 6.77171 133.604 6.68811C133.647 6.60451 133.647 6.56271 133.689 6.52091C133.689 6.47911 133.731 6.43731 133.731 6.43731V6.39551C132.885 6.39551 132.124 6.39551 131.447 6.39551C130.729 6.39551 130.094 6.39551 129.502 6.39551C128.91 6.39551 128.36 6.39551 127.895 6.39551C127.387 6.39551 126.964 6.39551 126.584 6.39551C126.203 6.39551 125.822 6.39551 125.526 6.39551C125.23 6.39551 124.934 6.39551 124.681 6.39551C124.427 6.39551 124.215 6.39551 124.046 6.39551C123.877 6.39551 123.708 6.39551 123.623 6.39551C123.496 6.39551 123.412 6.39551 123.327 6.39551C123.243 6.39551 123.2 6.39551 123.158 6.39551C123.116 6.39551 123.073 6.39551 123.073 6.39551H123.031C121.593 6.39551 120.409 7.18972 119.521 8.73634C119.394 9.02895 119.267 9.32155 119.182 9.57236C119.098 9.82316 118.971 10.0322 118.929 10.2412C118.844 10.4502 118.802 10.6174 118.717 10.7428C118.675 10.8682 118.59 10.9936 118.59 11.0772C118.548 11.1608 118.506 11.2444 118.506 11.328C118.463 11.3698 118.463 11.4534 118.463 11.4952C118.463 11.537 118.421 11.537 118.421 11.5788V11.6206C118.041 12.6238 118.083 13.5016 118.548 14.254C119.013 15.0064 119.732 15.3826 120.747 15.3826C121.213 15.3826 121.678 15.3826 122.058 15.3826C122.481 15.3826 122.82 15.3826 123.158 15.3826C123.496 15.3826 123.792 15.3826 124.046 15.3826C124.3 15.3826 124.554 15.3826 124.723 15.3826C124.892 15.3826 125.104 15.3826 125.23 15.3826C125.357 15.3826 125.484 15.3826 125.611 15.3826C125.696 15.3826 125.78 15.3826 125.865 15.3826C125.949 15.3826 125.992 15.3826 125.992 15.3826C126.034 15.3826 126.034 15.3826 126.076 15.3826H126.119C126.245 15.3826 126.33 15.4244 126.415 15.5498C126.457 15.6753 126.457 15.7589 126.415 15.8843C126.33 16.0933 126.288 16.2605 126.203 16.4277C126.161 16.5949 126.076 16.7203 126.034 16.8039C125.992 16.8875 125.949 16.9711 125.907 17.0547C125.865 17.1383 125.865 17.1801 125.822 17.2219C125.822 17.2637 125.78 17.2637 125.78 17.3055V17.3473C125.653 17.5563 125.526 17.6817 125.315 17.6817C124.596 17.6817 123.919 17.6817 123.285 17.6817C122.651 17.6817 122.101 17.6817 121.593 17.6817C121.086 17.6817 120.578 17.6817 120.155 17.6817C119.732 17.6817 119.352 17.6817 118.971 17.6817C118.633 17.6817 118.294 17.6817 118.041 17.6817C117.787 17.6817 117.533 17.6817 117.322 17.6817C117.11 17.6817 116.941 17.6817 116.772 17.6817C116.603 17.6817 116.476 17.6817 116.391 17.6817C116.264 17.6817 116.18 17.6817 116.137 17.6817C116.053 17.6817 116.01 17.6817 115.968 17.6817C115.926 17.6817 115.884 17.6817 115.884 17.6817H115.841C115.714 18.0579 115.545 18.3923 115.418 18.6849C115.291 18.9775 115.207 19.2283 115.08 19.4791C114.995 19.6881 114.911 19.8971 114.826 20.0643C114.742 20.2315 114.699 20.3569 114.657 20.4823C114.615 20.6077 114.572 20.6913 114.53 20.7749C114.488 20.8585 114.488 20.9003 114.446 20.9421C114.446 20.9839 114.403 21.0257 114.403 21.0257V21.0675C115.249 21.0675 116.01 21.0675 116.687 21.0675C117.406 21.0675 118.041 21.0675 118.633 21.0675C119.225 21.0675 119.775 21.0675 120.24 21.0675C120.705 21.0675 121.17 21.0675 121.551 21.0675C121.932 21.0675 122.312 21.0675 122.608 21.0675C122.904 21.0675 123.2 21.0675 123.454 21.0675C123.708 21.0675 123.919 21.0675 124.088 21.0675C124.258 21.0675 124.427 21.0675 124.511 21.0675C124.638 21.0675 124.723 21.0675 124.807 21.0675C124.892 21.0675 124.934 21.0675 124.977 21.0675C125.019 21.0675 125.061 21.0675 125.061 21.0675H125.104C125.865 21.0675 126.541 20.8585 127.218 20.3987C127.853 19.9389 128.318 19.3537 128.656 18.6431C128.783 18.3505 128.91 18.0579 128.994 17.8071C129.079 17.5563 129.206 17.3473 129.248 17.1383C129.333 16.9293 129.375 16.8039 129.46 16.6367C129.502 16.5113 129.544 16.3859 129.587 16.3023C129.629 16.2187 129.671 16.1351 129.671 16.0515C129.713 16.0097 129.713 15.9261 129.713 15.9261C129.713 15.8843 129.756 15.8843 129.756 15.8425V15.8007C130.136 14.7974 130.094 13.9614 129.629 13.209C129.164 12.4566 128.445 12.0804 127.472 12.0804C127.007 12.0804 126.541 12.0804 126.161 12.0804C125.738 12.0804 125.4 12.0804 125.061 12.0804C124.723 12.0804 124.427 12.0804 124.173 12.0804C123.919 12.0804 123.708 12.0804 123.496 12.0804C123.285 12.0804 123.116 12.0804 122.989 12.0804C122.862 12.0804 122.735 12.0804 122.608 12.0804C122.524 12.0804 122.439 12.0804 122.354 12.0804C122.27 12.0804 122.228 12.0804 122.228 12.0804C122.185 12.0804 122.185 12.0804 122.143 12.0804H122.101C121.974 12.0804 121.889 12.0386 121.805 11.9132C121.72 11.8296 121.72 11.7042 121.762 11.537C121.847 11.328 121.932 11.1608 121.974 10.9936C122.016 10.8264 122.101 10.701 122.143 10.6174C122.185 10.5338 122.228 10.4502 122.228 10.3666C122.27 10.283 122.27 10.2412 122.27 10.1994C122.27 10.1576 122.312 10.1576 122.312 10.1158V10.074C122.354 9.99036 122.397 9.90676 122.481 9.86496C122.566 9.82316 122.65 9.78136 122.777 9.78136C123.581 9.78136 124.258 9.78136 124.892 9.78136Z" fill="white"/>
<path d="M138.764 9.73975H133.9L135.254 6.4375H148.28L146.927 9.73975H142.19L137.961 20.9841H134.492L138.764 9.73975Z" fill="white"/>
<path d="M149.211 8.81995C150.057 7.23152 151.199 6.39551 152.721 6.39551H162.872L161.561 9.73956H155.682H152.848C152.764 9.73956 152.679 9.78136 152.594 9.82316C152.51 9.90676 152.425 9.99036 152.383 10.074L151.622 11.9968H157.585L156.316 15.299H150.311L149.592 17.0547C149.549 17.1801 149.549 17.3055 149.634 17.4309C149.718 17.5145 149.803 17.5981 149.93 17.5981H154.455H158.473C158.092 18.6013 157.627 19.7299 157.162 20.9003H148.492C147.477 20.9003 146.673 20.5241 146.166 19.7717C145.658 19.0193 145.574 18.1415 145.954 17.1801L149.211 8.81995Z" fill="white"/>
<path d="M173.445 20.9419C173.234 20.9419 173.022 20.9419 172.811 20.9419C172.641 20.9419 172.472 20.9419 172.303 20.9419C172.134 20.9419 172.007 20.9419 171.88 20.9419C171.753 20.9419 171.626 20.9419 171.542 20.9419C171.457 20.9419 171.33 20.9419 171.288 20.9419C171.204 20.9419 171.119 20.9419 171.077 20.9419C171.034 20.9419 170.95 20.9419 170.907 20.9419C170.865 20.9419 170.823 20.9419 170.823 20.9419C170.781 20.9419 170.781 20.9419 170.738 20.9419H170.696C170.696 20.9419 170.696 20.9419 170.654 20.9419C171.204 19.6043 171.711 18.4757 172.092 17.5143C172.472 16.5947 172.811 15.8005 173.022 15.2153C173.276 14.63 173.445 14.1284 173.572 13.794C173.699 13.4596 173.826 13.167 173.91 12.9162C171.753 15.4661 169.766 17.8069 167.905 19.8551C167.397 19.8551 166.932 19.6879 166.594 19.3535C166.255 19.0191 166.044 18.6011 166.001 18.0995C166.001 17.7233 165.959 17.3471 165.959 17.0127C165.959 16.6783 165.917 16.3439 165.917 16.0931C165.917 15.8005 165.917 15.5497 165.875 15.2989C165.875 15.048 165.875 14.839 165.832 14.63C165.832 14.421 165.832 14.2538 165.832 14.0866C165.832 13.9194 165.832 13.794 165.832 13.6268C165.832 13.5014 165.832 13.376 165.832 13.2924C165.832 13.2088 165.832 13.1252 165.832 13.0416C165.832 12.958 165.832 12.9162 165.832 12.8326C165.832 12.7908 165.832 12.749 165.832 12.7072C165.832 12.6654 165.832 12.6654 165.832 12.6236V12.5818C165.24 13.9612 164.775 15.1735 164.394 16.1349C164.014 17.0963 163.675 17.8905 163.422 18.5175C163.168 19.1445 162.999 19.6461 162.829 19.9805C162.703 20.3149 162.576 20.6075 162.491 20.9001C162.237 20.9001 161.984 20.9001 161.772 20.9001C161.561 20.9001 161.349 20.9001 161.138 20.9001C160.969 20.9001 160.799 20.9001 160.63 20.9001C160.461 20.9001 160.334 20.9001 160.207 20.9001C160.08 20.9001 159.954 20.9001 159.869 20.9001C159.784 20.9001 159.657 20.9001 159.615 20.9001C159.531 20.9001 159.446 20.9001 159.404 20.9001C159.361 20.9001 159.277 20.9001 159.235 20.9001C159.192 20.9001 159.15 20.9001 159.108 20.9001C159.065 20.9001 159.065 20.9001 159.023 20.9001H158.981C158.981 20.9001 158.981 20.9001 158.938 20.9001C159.319 19.9805 159.657 19.1027 159.954 18.3085C160.292 17.5143 160.546 16.7619 160.842 16.0931C161.095 15.4243 161.349 14.7972 161.603 14.212C161.814 13.6268 162.026 13.1252 162.237 12.6654C162.407 12.2056 162.618 11.7876 162.745 11.3696C162.914 10.9934 163.041 10.659 163.168 10.3664C163.295 10.0738 163.379 9.78117 163.464 9.57217C163.548 9.36316 163.633 9.15416 163.718 8.98696C163.802 8.81975 163.844 8.69435 163.887 8.56895C163.929 8.44355 163.971 8.35995 164.014 8.27634C164.056 8.19274 164.056 8.15094 164.098 8.10914C164.098 8.06734 164.141 8.02554 164.141 8.02554V7.98374C164.733 6.89692 165.536 6.35352 166.551 6.35352C166.763 6.35352 166.974 6.35352 167.143 6.35352C167.313 6.35352 167.482 6.35352 167.609 6.35352C167.735 6.35352 167.862 6.35352 167.947 6.35352C168.032 6.35352 168.116 6.35352 168.201 6.35352C168.285 6.35352 168.328 6.35352 168.37 6.35352C168.412 6.35352 168.454 6.35352 168.497 6.35352C168.539 6.35352 168.539 6.35352 168.539 6.35352H168.581C168.581 6.81332 168.624 7.23133 168.624 7.64934C168.624 8.06734 168.666 8.44355 168.666 8.77795C168.666 9.11236 168.708 9.44676 168.708 9.78117C168.708 10.1156 168.751 10.4082 168.751 10.659C168.751 10.9098 168.751 11.2024 168.793 11.4114C168.793 11.6622 168.793 11.8712 168.835 12.0384C168.835 12.2474 168.835 12.4146 168.877 12.5818C168.877 12.749 168.877 12.8744 168.877 13.0416C168.877 13.167 168.877 13.2924 168.877 13.4178C168.877 13.5432 168.877 13.6268 168.877 13.7104C168.877 13.794 168.877 13.8776 168.877 13.9194C168.877 14.003 168.877 14.0448 168.877 14.0866C168.877 14.1284 168.877 14.1702 168.877 14.212C168.877 14.2538 168.877 14.2538 168.877 14.2956V14.3374C168.877 14.3374 168.877 14.3374 168.877 14.3792C169.469 13.7104 170.019 13.0834 170.527 12.4982C171.034 11.913 171.457 11.4114 171.88 10.9516C172.303 10.4918 172.641 10.0738 172.98 9.69757C173.318 9.32136 173.614 8.98696 173.868 8.69435C174.122 8.40175 174.376 8.15094 174.545 7.90014C174.756 7.69114 174.925 7.48213 175.052 7.31493C175.179 7.14773 175.306 7.02233 175.433 6.89692C175.517 6.77152 175.602 6.68792 175.687 6.64612C175.729 6.56252 175.813 6.52072 175.813 6.47892C175.856 6.43712 175.898 6.39532 175.898 6.39532C176.321 6.39532 176.659 6.39532 176.998 6.39532C177.336 6.39532 177.59 6.39532 177.844 6.39532C178.097 6.39532 178.309 6.39532 178.52 6.39532C178.732 6.39532 178.901 6.39532 179.028 6.39532C179.155 6.39532 179.282 6.39532 179.408 6.39532C179.493 6.39532 179.578 6.39532 179.662 6.39532C179.704 6.39532 179.789 6.39532 179.789 6.39532C179.831 6.39532 179.831 6.39532 179.874 6.39532H179.916C179.535 7.35673 179.155 8.27634 178.816 9.11236C178.478 9.94837 178.182 10.7426 177.886 11.4532C177.59 12.1638 177.336 12.8744 177.082 13.4596C176.829 14.0866 176.617 14.6718 176.406 15.1735C176.194 15.6751 176.025 16.1767 175.813 16.5947C175.644 17.0127 175.475 17.4307 175.348 17.7651C175.221 18.0995 175.094 18.4339 174.968 18.6847C174.841 18.9773 174.756 19.1863 174.672 19.3953C174.587 19.6043 174.502 19.7715 174.46 19.9387C174.418 20.1059 174.333 20.2313 174.291 20.3149C174.249 20.4403 174.206 20.5239 174.164 20.5657C174.122 20.6493 174.122 20.6911 174.079 20.7329C174.079 20.7747 174.037 20.8165 174.037 20.8165C174.037 20.8165 174.037 20.8583 173.995 20.8583C173.91 20.9419 173.699 20.9419 173.445 20.9419Z" fill="white"/>
</svg>
